# File created by Blade
# Date/Time:  Tue Sep 28 14:35:47 2010
#---------------------------------------------------------
:version 1.10
:name HOM
:units
  mass 1.0
  length 1.000000
  angle deg
:documentation
     Acclaim Skeleton File
:root
   axis xyz
   order TX TY TZ RX RY RZ
   position 0.000000 0.000000 0.000000
   orientation 0 0 0
:bonedata
   begin
      id 1
      name LeftUpLeg_dum
      direction 1.000000 0.000000 0.000000
      length 3.677894
      axis 0.0 0.0 0.0 xyz
   end
   begin
      id 2
      name RightUpLeg_dum
      direction -1.000000 0.000000 0.000000
      length 3.677894
      axis 0.0 0.0 0.0 xyz
   end
   begin
      id 3
      name Spine_dum
      direction 0.000000 1.000000 0.000000
      length 0.039370
      axis 0.0 0.0 0.0 xyz
   end
   begin
      id 4
      name LeftUpLeg
      direction 0.000000 -1.000000 0.000000
      length 18.389491
      axis 0.0 0.0 0.0 xyz
      dof rx ry rz
   end
   begin
      id 5
      name LeftLeg
      direction 0.000000 -1.000000 0.000000
      length 16.918313
      axis 0.0 0.0 0.0 xyz
      dof rx ry rz
   end
   begin
      id 6
      name LeftFoot
      direction 0.000000 -0.258819 0.965926
      length 6.436326
      axis 15.0 0.0 0.0 xyz
      dof rx ry rz
   end
   begin
      id 7
      name LeftToeBase
      direction 0.000000 0.000000 1.000000
      length 2.952750
      axis 0.0 0.0 0.0 xyz
      dof rx ry rz
   end
   begin
      id 8
      name RightUpLeg
      direction 0.000000 -1.000000 0.000000
      length 18.389491
      axis 0.0 0.0 0.0 xyz
      dof rx ry rz
   end
   begin
      id 9
      name RightLeg
      direction 0.000000 -1.000000 0.000000
      length 16.918313
      axis 0.0 0.0 0.0 xyz
      dof rx ry rz
   end
   begin
      id 10
      name RightFoot
      direction 0.000000 -0.258819 0.965926
      length 6.436326
      axis 15.0 0.0 0.0 xyz
      dof rx ry rz
   end
   begin
      id 11
      name RightToeBase
      direction 0.000000 0.000000 1.000000
      length 2.952750
      axis 0.0 0.0 0.0 xyz
      dof rx ry rz
   end
   begin
      id 12
      name Spine
      direction 0.000000 1.000000 0.000000
      length 9.194745
      axis 0.0 0.0 0.0 xyz
      dof rx ry rz
   end
   begin
      id 13
      name Spine1
      direction 0.000000 1.000000 0.000000
      length 0.000000
      axis 0.0 0.0 0.0 xyz
      dof rx ry rz
   end
   begin
      id 14
      name Spine1_dum1
      direction 0.000000 1.000000 0.000000
      length 9.194745
      axis 0.0 0.0 0.0 xyz
   end
   begin
      id 15
      name Spine1_dum2
      direction 0.000000 1.000000 0.000000
      length 9.194745
      axis 0.0 0.0 0.0 xyz
   end
   begin
      id 16
      name Spine1_dum3
      direction 0.000000 1.000000 0.000000
      length 9.194745
      axis 0.0 0.0 0.0 xyz
   end
   begin
      id 17
      name Neck
      direction 0.000000 1.000000 0.000000
      length 4.229598
      axis 0.0 0.0 0.0 xyz
      dof rx ry rz
   end
   begin
      id 18
      name Head
      direction 0.000000 1.000000 0.000000
      length 4.527550
      axis 0.0 0.0 0.0 xyz
      dof rx ry rz
   end
   begin
      id 19
      name LeftShoulder
      direction 1.000000 -0.000004 0.000000
      length 5.516839
      axis 0.0 0.0 -90.0 xyz
      dof rx ry rz
   end
   begin
      id 20
      name LeftArm
      direction 1.000000 -0.000004 0.000000
      length 11.033679
      axis 0.0 0.0 -90.0 xyz
      dof rx ry rz
   end
   begin
      id 21
      name LeftForeArm
      direction 1.000000 -0.000004 0.000000
      length 10.114232
      axis 0.0 0.0 -90.0 xyz
      dof rx ry rz
   end
   begin
      id 22
      name LeftHand
      direction 0.000000 0.000000 0.000000
      length 0.000000
      axis 0.0 0.0 -90.0 xyz
      dof rx ry rz
   end
   begin
      id 23
      name LeftHand_dum1
      direction 0.000000 0.000000 0.000000
      length 0.000000
      axis 0.0 0.0 -90.0 xyz
   end
   begin
      id 24
      name LeftHand_dum2
      direction 1.000000 -0.000004 0.000000
      length 3.937000
      axis 0.0 0.0 -90.0 xyz
   end
   begin
      id 25
      name LeftHandThumb
      direction 0.000000 0.000000 1.000000
      length 3.937000
      axis 0.0 0.0 -90.0 xyz
      dof rx ry rz
   end
   begin
      id 26
      name RightShoulder
      direction -1.000000 -0.000004 0.000000
      length 5.516839
      axis 0.0 0.0 90.0 xyz
      dof rx ry rz
   end
   begin
      id 27
      name RightArm
      direction -1.000000 -0.000004 0.000000
      length 11.033679
      axis 0.0 0.0 90.0 xyz
      dof rx ry rz
   end
   begin
      id 28
      name RightForeArm
      direction -1.000000 -0.000004 0.000000
      length 10.114232
      axis 0.0 0.0 90.0 xyz
      dof rx ry rz
   end
   begin
      id 29
      name RightHand
      direction 0.000000 0.000000 0.000000
      length 0.000000
      axis 0.0 0.0 90.0 xyz
      dof rx ry rz
   end
   begin
      id 30
      name RightHand_dum1
      direction 0.000000 0.000000 0.000000
      length 0.000000
      axis 0.0 0.0 90.0 xyz
   end
   begin
      id 31
      name RightHand_dum2
      direction -1.000000 -0.000004 0.000000
      length 5.393690
      axis 0.0 0.0 90.0 xyz
   end
   begin
      id 32
      name RightHandThumb
      direction 0.000000 0.000000 1.000000
      length 3.937000
      axis 0.0 0.0 90.0 xyz
      dof rx ry rz
   end
:hierarchy
   begin
      root LeftUpLeg_dum RightUpLeg_dum Spine_dum
      LeftUpLeg_dum LeftUpLeg
      RightUpLeg_dum RightUpLeg
      Spine_dum Spine
      LeftUpLeg LeftLeg
      LeftLeg LeftFoot
      LeftFoot LeftToeBase
      RightUpLeg RightLeg
      RightLeg RightFoot
      RightFoot RightToeBase
      Spine Spine1
      Spine1 Spine1_dum1 Spine1_dum2 Spine1_dum3
      Spine1_dum1 Neck
      Spine1_dum2 LeftShoulder
      Spine1_dum3 RightShoulder
      Neck Head
      LeftShoulder LeftArm
      LeftArm LeftForeArm
      LeftForeArm LeftHand
      LeftHand LeftHand_dum1 LeftHand_dum2
      LeftHand_dum1 LeftHandThumb
      RightShoulder RightArm
      RightArm RightForeArm
      RightForeArm RightHand
      RightHand RightHand_dum1 RightHand_dum2
      RightHand_dum1 RightHandThumb
   end

# File created by Blade
# Date/Time:  Tue Sep 28 14:35:42 2010
# Frame Rate: 200.000 fps
#------------------------------------------------------
:FULLY-SPECIFIED
:DEGREES
1163
root  3.690335 38.396763 96.382192 6.540656 -1.259726 -2.383993
LeftUpLeg  -10.552704 3.671409 -0.144760
LeftLeg  10.759156 -0.000000 0.000000
LeftFoot  4.231341 14.937555 4.754858
LeftToeBase  -7.556782 0.000000 -0.000000
RightUpLeg  -14.785626 -24.615240 6.309747
RightLeg  16.499418 -0.000000 0.000000
RightFoot  4.057542 4.130048 -16.547254
RightToeBase  -9.008518 0.000000 -0.000000
Spine  -13.892946 -1.390977 -0.700719
Spine1  10.680204 -0.254368 1.591249
Neck  23.066912 7.171455 -8.374921
Head  -13.423035 0.875211 4.008293
LeftShoulder  -13.653966 0.720499 -8.645624
LeftArm  -0.665010 -23.116638 1.790285
LeftForeArm  9.581556 -0.000000 0.000000
LeftHand  5.404407 19.350035 13.360692
LeftHandThumb  0.000000 -0.000000 0.000000
RightShoulder  -1.509801 -8.426286 8.403559
RightArm  -1.858887 12.832796 -1.834456
RightForeArm  0.028374 -0.000000 0.000000
RightHand  -2.792501 -6.521291 -5.897488
RightHandThumb  0.000000 -0.000000 0.000000
1164
root  3.690606 38.407608 96.425955 6.465463 -1.397914 -2.390078
LeftUpLeg  -10.450259 3.580340 -0.144566
LeftLeg  10.858162 -0.000000 0.000000
LeftFoot  4.293711 15.267875 4.880563
LeftToeBase  -7.474282 0.000000 -0.000000
RightUpLeg  -14.664382 -24.381904 6.187743
RightLeg  16.596697 -0.000000 0.000000
RightFoot  4.110217 4.182599 -16.450819
RightToeBase  -8.768348 0.000000 -0.000000
Spine  -13.885735 -1.377829 -0.664991
Spine1  10.689415 -0.254409 1.582484
Neck  24.427706 1.661826 -7.276367
Head  -15.212629 5.014257 -1.421326
LeftShoulder  -13.772169 0.575953 -8.477118
LeftArm  -0.738784 -23.232526 1.820268
LeftForeArm  9.669445 -0.000000 0.000000
LeftHand  5.522489 19.395543 13.719038
LeftHandThumb  0.000000 -0.000000 0.000000
RightShoulder  -1.479226 -8.312406 8.257172
RightArm  -1.822520 12.876438 -1.933627
RightForeArm  -0.009631 0.000000 -0.000000
RightHand  -2.929214 -6.898284 -5.895947
RightHandThumb  0.000000 -0.000000 0.000000
1165
root  3.668756 38.412414 96.479098 6.434618 -1.484780 -2.372243
LeftUpLeg  -10.316568 3.640468 -0.128032
LeftLeg  10.821554 -0.000000 0.000000
LeftFoot  4.253085 15.244336 4.803704
LeftToeBase  -7.298074 0.000000 -0.000000
RightUpLeg  -14.534196 -24.288036 6.133862
RightLeg  16.583924 -0.000000 0.000000
RightFoot  4.027360 4.182857 -16.321511
RightToeBase  -8.745476 0.000000 -0.000000
Spine  -13.842489 -1.318380 -0.630411
Spine1  10.528855 -0.207950 1.517879
Neck  22.865279 8.625007 -8.635961
Head  -12.787384 -0.044681 5.577707
LeftShoulder  -13.790336 0.330939 -8.243053
LeftArm  -0.709296 -23.359222 1.910721
LeftForeArm  9.624243 -0.000000 0.000000
LeftHand  5.457839 20.236900 13.971754
LeftHandThumb  0.000000 -0.000000 0.000000
RightShoulder  -1.508270 -8.507116 8.139039
RightArm  -1.920225 12.894572 -1.992453
RightForeArm  -0.079684 0.000000 -0.000000
RightHand  -3.048089 -6.679455 -5.943555
RightHandThumb  0.000000 -0.000000 0.000000
1166
root  3.660132 38.423811 96.502167 6.433968 -1.507316 -2.365196
LeftUpLeg  -10.316567 3.642072 -0.136741
LeftLeg  10.854925 -0.000000 0.000000
LeftFoot  4.431277 15.339346 4.902415
LeftToeBase  -7.742224 0.000000 -0.000000
RightUpLeg  -14.512990 -24.252587 6.112539
RightLeg  16.653811 -0.000000 0.000000
RightFoot  4.148455 4.179741 -16.343189
RightToeBase  -8.639697 0.000000 -0.000000
Spine  -13.809836 -1.317140 -0.601361
Spine1  10.566665 -0.217575 1.528529
Neck  23.081746 7.227100 -8.466794
Head  -13.481739 0.823559 3.815352
LeftShoulder  -13.842330 0.459994 -8.204572
LeftArm  -0.767618 -23.779295 1.974235
LeftForeArm  9.624077 -0.000000 0.000000
LeftHand  5.754264 19.867859 14.017934
LeftHandThumb  0.000000 -0.000000 0.000000
RightShoulder  -1.543071 -8.624386 8.045295
RightArm  -1.974989 13.166737 -2.113872
RightForeArm  -0.112613 0.000000 -0.000000
RightHand  -2.916629 -6.779825 -6.035515
RightHandThumb  0.000000 -0.000000 0.000000
1167
root  3.660307 38.432521 96.561943 6.380024 -1.704751 -2.370855
LeftUpLeg  -10.165373 3.424503 -0.115323
LeftLeg  10.923622 -0.000000 0.000000
LeftFoot  4.332743 15.752101 4.772343
LeftToeBase  -7.542675 0.000000 -0.000000
RightUpLeg  -14.373069 -24.280468 6.027233
RightLeg  16.619870 -0.000000 0.000000
RightFoot  4.091711 4.520513 -16.231387
RightToeBase  -8.678694 0.000000 -0.000000
Spine  -13.797211 -1.302108 -0.536644
Spine1  10.425828 -0.222976 1.540203
Neck  24.540703 1.129228 -7.224986
Head  -15.497792 5.708249 -2.971504
LeftShoulder  -13.983635 0.037300 -7.979658
LeftArm  -0.894027 -24.049090 2.013653
LeftForeArm  9.818204 -0.000000 0.000000
LeftHand  5.583235 21.239866 13.996183
LeftHandThumb  0.000000 -0.000000 0.000000
RightShoulder  -1.498531 -7.993873 7.818420
RightArm  -1.910242 12.719748 -2.201620
RightForeArm  -0.074126 0.000000 -0.000000
RightHand  -3.210607 -6.933039 -5.874501
RightHandThumb  0.000000 -0.000000 0.000000
1168
root  3.649331 38.443803 96.589163 6.376239 -1.712076 -2.371186
LeftUpLeg  -10.162617 3.458488 -0.120226
LeftLeg  10.952939 -0.000000 0.000000
LeftFoot  4.592947 15.811915 5.024278
LeftToeBase  -7.794384 0.000000 -0.000000
RightUpLeg  -14.357949 -24.292714 6.018931
RightLeg  16.665253 -0.000000 0.000000
RightFoot  4.197270 4.544362 -16.181095
RightToeBase  -8.657593 0.000000 -0.000000
Spine  -13.773899 -1.287650 -0.530857
Spine1  10.412036 -0.211110 1.529092
Neck  24.283883 2.523156 -7.443300
Head  -14.967115 4.671137 -1.189236
LeftShoulder  -14.018623 0.187808 -7.923627
LeftArm  -0.916892 -24.347040 2.091654
LeftForeArm  9.863552 -0.000000 0.000000
LeftHand  5.673601 20.831070 14.019835
LeftHandThumb  0.000000 -0.000000 0.000000
RightShoulder  -1.531976 -8.256420 7.756427
RightArm  -1.963453 12.766149 -2.259729
RightForeArm  -0.186474 0.000000 -0.000000
RightHand  -3.058919 -6.957398 -6.078162
RightHandThumb  0.000000 -0.000000 0.000000
1169
root  3.634822 38.450265 96.657830 6.332398 -1.853564 -2.358357
LeftUpLeg  -9.998722 3.385951 -0.099011
LeftLeg  10.938496 -0.000000 0.000000
LeftFoot  4.523124 16.045627 4.776689
LeftToeBase  -7.742469 0.000000 -0.000000
RightUpLeg  -14.174325 -24.427498 5.963999
RightLeg  16.608170 -0.000000 0.000000
RightFoot  4.080582 4.808207 -16.284356
RightToeBase  -8.541240 0.000000 -0.000000
Spine  -13.725620 -1.220185 -0.453054
Spine1  10.172066 -0.170175 1.490080
Neck  23.605542 7.380622 -8.559777
Head  -13.881877 1.240774 3.503780
LeftShoulder  -14.072658 -0.287481 -7.615517
LeftArm  -0.900453 -23.820228 2.087699
LeftForeArm  9.743600 -0.000000 0.000000
LeftHand  5.766603 20.877202 14.143851
LeftHandThumb  0.000000 -0.000000 0.000000
RightShoulder  -1.543241 -8.473305 7.555039
RightArm  -2.042282 12.820833 -2.250188
RightForeArm  -0.201558 0.000000 -0.000000
RightHand  -3.138511 -6.751646 -6.213805
RightHandThumb  0.000000 -0.000000 0.000000
1170
root  3.628201 38.461710 96.698036 6.263025 -1.973666 -2.381753
LeftUpLeg  -9.902056 3.248658 -0.068992
LeftLeg  11.026894 -0.000000 0.000000
LeftFoot  4.589270 16.354803 4.805815
LeftToeBase  -7.628216 0.000000 -0.000000
RightUpLeg  -14.062434 -24.487613 5.928063
RightLeg  16.648639 -0.000000 0.000000
RightFoot  4.090501 5.033268 -16.246275
RightToeBase  -8.458644 0.000000 -0.000000
Spine  -13.683727 -1.210218 -0.431265
Spine1  10.098836 -0.166468 1.487620
Neck  24.539895 2.704787 -7.621279
Head  -15.010025 4.773738 -1.096511
LeftShoulder  -14.195615 -0.420604 -7.412223
LeftArm  -0.945515 -23.813044 2.053461
LeftForeArm  9.839991 -0.000000 0.000000
LeftHand  5.844795 21.330268 14.447460
LeftHandThumb  0.000000 -0.000000 0.000000
RightShoulder  -1.480155 -8.178123 7.392073
RightArm  -2.019212 12.613507 -2.256093
RightForeArm  -0.273399 0.000000 -0.000000
RightHand  -3.178145 -7.029574 -6.156766
RightHandThumb  0.000000 -0.000000 0.000000
1171
root  3.609625 38.468482 96.742798 6.222004 -2.034571 -2.375305
LeftUpLeg  -9.793691 3.228849 -0.043146
LeftLeg  11.027531 -0.000000 0.000000
LeftFoot  4.638233 16.423094 4.758683
LeftToeBase  -7.624178 0.000000 -0.000000
RightUpLeg  -13.927741 -24.636827 5.917171
RightLeg  16.593206 -0.000000 0.000000
RightFoot  4.048793 5.197303 -16.335659
RightToeBase  -8.557842 0.000000 -0.000000
Spine  -13.619766 -1.185374 -0.381806
Spine1  9.985239 -0.158357 1.453075
Neck  23.739386 7.798970 -8.828394
Head  -13.982725 0.778397 3.977412
LeftShoulder  -14.216533 -1.009547 -7.121820
LeftArm  -0.891597 -22.832341 2.066963
LeftForeArm  9.568581 -0.000000 0.000000
LeftHand  6.108347 20.397071 14.872582
LeftHandThumb  0.000000 -0.000000 0.000000
RightShoulder  -1.494345 -7.984044 7.257730
RightArm  -2.094083 12.394046 -2.286118
RightForeArm  -0.248856 0.000000 -0.000000
RightHand  -3.206477 -7.121744 -6.166864
RightHandThumb  0.000000 -0.000000 0.000000
1172
root  3.605290 38.474085 96.802267 6.169800 -2.060849 -2.382008
LeftUpLeg  -9.665191 3.115873 -0.028282
LeftLeg  11.072089 -0.000000 0.000000
LeftFoot  4.599856 16.601359 4.838451
LeftToeBase  -7.237523 0.000000 -0.000000
RightUpLeg  -13.746591 -24.902782 5.877372
RightLeg  16.526332 -0.000000 0.000000
RightFoot  3.966748 5.503466 -16.267948
RightToeBase  -8.429653 0.000000 -0.000000
Spine  -13.707582 -1.208382 -0.338492
Spine1  10.108480 -0.186316 1.477630
Neck  23.683054 5.436943 -9.075605
Head  -13.934565 3.398987 2.654648
LeftShoulder  -14.302885 -1.164521 -6.917092
LeftArm  -0.914588 -22.882528 1.971937
LeftForeArm  9.584145 -0.000000 0.000000
LeftHand  6.236156 20.719519 15.062354
LeftHandThumb  0.000000 -0.000000 0.000000
RightShoulder  -1.373619 -7.076545 6.932008
RightArm  -2.233545 11.733592 -2.187227
RightForeArm  -0.228127 0.000000 -0.000000
RightHand  -3.179802 -7.351556 -6.233177
RightHandThumb  0.000000 -0.000000 0.000000
